# xmcd
#
# Track frame offsets:
#	150
#	16912
#	32755
#	42887
#	54030
#	62520
#	81687
#	105117
#	114170
#	122725
#	129900
#	136400
#	142975
#	150975
#
# Disc length: 2239 seconds
#
# Revision: 1
# Processed by: cddbd v1.4PL0 Copyright (c) Steve Scherf et al.
# Submitted via: EasyCDDAExtractor 6.0.0.1
#
DISCID=a308bd0e
DTITLE=Baron - Ballads With A Caribbean Flavor
DYEAR=1900
DGENRE=Caribbean
TTITLE0=Help Me Make It Through The Night
TTITLE1=Let It Be Me
TTITLE2=Laura I Need You
TTITLE3=More
TTITLE4=Dream Lover
TTITLE5=Summertime
TTITLE6=Green Green Grass Of Home
TTITLE7=Fools Rush In
TTITLE8=All I Have To Do Is Dream
TTITLE9=You Are My Special Angel
TTITLE10=Sweet For My Sweet
TTITLE11=Guave Jelly
TTITLE12=Red Red Wine
TTITLE13=I (Who Have Nothing)
EXTD=
EXTT0=
EXTT1=
EXTT2=
EXTT3=
EXTT4=
EXTT5=
EXTT6=
EXTT7=
EXTT8=
EXTT9=
EXTT10=
EXTT11=
EXTT12=
EXTT13=
PLAYORDER=
